<svg width="276" height="252" viewBox="0 0 276 252" fill="none" xmlns="http://www.w3.org/2000/svg">
<path d="M3.22577 44C3.22577 20.2517 22.4775 1 46.2258 1H229.774C253.522 1 272.774 20.2518 272.774 44V263.871H3.22577V44Z" stroke="#222222" stroke-width="2"/>
<mask id="path-2-inside-1_9_31" fill="white">
<path fill-rule="evenodd" clip-rule="evenodd" d="M44.3871 8.90322C25.6094 8.90322 10.3871 24.1255 10.3871 42.9032V264.871H265.613V42.9032C265.613 24.1255 250.391 8.90322 231.613 8.90322H205.516V10.2243C205.516 20.1654 197.457 28.2243 187.516 28.2243H87.742C77.8008 28.2243 69.742 20.1654 69.742 10.2243V8.90322H44.3871Z"/>
</mask>
<path fill-rule="evenodd" clip-rule="evenodd" d="M44.3871 8.90322C25.6094 8.90322 10.3871 24.1255 10.3871 42.9032V264.871H265.613V42.9032C265.613 24.1255 250.391 8.90322 231.613 8.90322H205.516V10.2243C205.516 20.1654 197.457 28.2243 187.516 28.2243H87.742C77.8008 28.2243 69.742 20.1654 69.742 10.2243V8.90322H44.3871Z" fill="#F7F7F7"/>
<path d="M10.3871 264.871H8.38708V266.871H10.3871V264.871ZM265.613 264.871V266.871H267.613V264.871H265.613ZM205.516 8.90322V6.90322H203.516V8.90322H205.516ZM69.742 8.90322H71.742V6.90322H69.742V8.90322ZM12.3871 42.9032C12.3871 25.2301 26.714 10.9032 44.3871 10.9032V6.90322C24.5048 6.90322 8.38708 23.021 8.38708 42.9032H12.3871ZM12.3871 264.871V42.9032H8.38708V264.871H12.3871ZM265.613 262.871H10.3871V266.871H265.613V262.871ZM263.613 42.9032V264.871H267.613V42.9032H263.613ZM231.613 10.9032C249.286 10.9032 263.613 25.2301 263.613 42.9032H267.613C267.613 23.021 251.495 6.90322 231.613 6.90322V10.9032ZM205.516 10.9032H231.613V6.90322H205.516V10.9032ZM203.516 8.90322V10.2243H207.516V8.90322H203.516ZM203.516 10.2243C203.516 19.0608 196.353 26.2243 187.516 26.2243V30.2243C198.562 30.2243 207.516 21.27 207.516 10.2243H203.516ZM187.516 26.2243H87.742V30.2243H187.516V26.2243ZM87.742 26.2243C78.9054 26.2243 71.742 19.0608 71.742 10.2243H67.742C67.742 21.27 76.6963 30.2243 87.742 30.2243V26.2243ZM71.742 10.2243V8.90322H67.742V10.2243H71.742ZM44.3871 10.9032H69.742V6.90322H44.3871V10.9032Z" fill="#222222" mask="url(#path-2-inside-1_9_31)"/>
<rect x="112.032" y="14.0968" width="34.129" height="4.45161" rx="2.22581" fill="#222222"/>
<circle cx="159.516" cy="16.3226" r="5.19355" fill="#222222"/>
<rect y="72.7097" width="3.70968" height="23" rx="1.85484" fill="#222222"/>
<rect y="112.774" width="3.70968" height="42.2903" rx="1.85484" fill="#222222"/>
<rect y="166.935" width="3.70968" height="43.0323" rx="1.85484" fill="#222222"/>
<rect x="272.29" y="129.839" width="3.70968" height="66.0323" rx="1.85484" fill="#222222"/>
</svg>
